# xmcd CD database file
#
# Track frame offsets:
#	187
#	21700
#	36987
#	53002
#	71697
#	91182
#	103045
#	123227
#	140150
#	158997
#	176517
#	192987
#
# Disc length: 2857 seconds
#
# Revision: 1
# Processed by: cddbd v1.5.1PL0 Copyright (c) Steve Scherf et al.
# Submitted via: CDex 1.51
#
DISCID=ac0b270c
DTITLE=Elvis Presley - 1970_2: That's The way It Is (Japan)
DYEAR=1970
DGENRE=Pop
TTITLE0=I Just Can't Help Believin'
TTITLE1=Twenty Days And Twenty Nights
TTITLE2=How The web Was Woven
TTITLE3=Patch It Up
TTITLE4=Mary In The Morning
TTITLE5=You Don't Have To Say You Love Me
TTITLE6=You've Lost That Lovin' Feelin'
TTITLE7=I've Lost You
TTITLE8=Just Pretend
TTITLE9=Stranger In The Crowd
TTITLE10=The Next Step Is Love
TTITLE11=Bridge Over Troubled Water
EXTD=YEAR: 1970
EXTT0=
EXTT1=
EXTT2=
EXTT3=
EXTT4=
EXTT5=
EXTT6=
EXTT7=
EXTT8=
EXTT9=
EXTT10=
EXTT11=
PLAYORDER=
